<svg width="46" height="37" viewBox="0 0 46 37" fill="none" xmlns="http://www.w3.org/2000/svg">
<path d="M37.8212 9.73611C36.4146 6.48667 33.9869 3.79053 30.9103 2.06085C27.8336 0.331167 24.2776 -0.336648 20.7873 0.159743C17.297 0.656133 14.0649 2.28934 11.5862 4.80911C9.10747 7.32887 7.51898 10.5962 7.06409 14.1104C4.86916 14.6388 2.9437 15.9592 1.65336 17.8208C0.363028 19.6824 -0.202317 21.9556 0.0646887 24.2087C0.331695 26.4617 1.41246 28.5378 3.10173 30.0425C4.79101 31.5473 6.97115 32.3759 9.22814 32.3712C9.83872 32.3712 10.4243 32.1273 10.856 31.6933C11.2878 31.2592 11.5303 30.6706 11.5303 30.0567C11.5303 29.4429 11.2878 28.8542 10.856 28.4202C10.4243 27.9861 9.83872 27.7423 9.22814 27.7423C8.00699 27.7423 6.83585 27.2546 5.97237 26.3866C5.10888 25.5185 4.62378 24.3411 4.62378 23.1135C4.62378 21.8858 5.10888 20.7085 5.97237 19.8404C6.83585 18.9723 8.00699 18.4846 9.22814 18.4846C9.83872 18.4846 10.4243 18.2408 10.856 17.8067C11.2878 17.3727 11.5303 16.784 11.5303 16.1702C11.5362 13.4329 12.5071 10.7863 14.2705 8.7006C16.034 6.61491 18.4758 5.22518 21.1621 4.77832C23.8484 4.33146 26.6053 4.85639 28.943 6.25986C31.2808 7.66333 33.0479 9.85447 33.9305 12.444C34.0621 12.8417 34.2987 13.196 34.615 13.4691C34.9312 13.7422 35.3153 13.9239 35.7263 13.9946C37.2597 14.286 38.6497 15.0908 39.6699 16.2779C40.6902 17.465 41.2804 18.9645 41.3445 20.5321C41.4086 22.0996 40.9427 23.6427 40.0228 24.91C39.1029 26.1773 37.7832 27.094 36.2788 27.5109C35.6865 27.6643 35.1791 28.048 34.8683 28.5775C34.5574 29.1071 34.4686 29.7391 34.6212 30.3345C34.7738 30.9299 35.1555 31.4399 35.6822 31.7524C36.209 32.0649 36.8376 32.1543 37.4299 32.0008C39.8527 31.3572 42.0003 29.9364 43.5468 27.954C45.0932 25.9716 45.9539 23.5361 45.9982 21.0172C46.0425 18.4983 45.2679 16.0337 43.7921 13.9977C42.3163 11.9616 40.2199 10.4654 37.8212 9.73611V9.73611ZM24.6758 14.527C24.4568 14.3163 24.1987 14.1511 23.9161 14.0409C23.3556 13.8094 22.7269 13.8094 22.1664 14.0409C21.8838 14.1511 21.6256 14.3163 21.4067 14.527L14.5001 21.4702C14.0666 21.906 13.8231 22.4971 13.8231 23.1135C13.8231 23.7298 14.0666 24.3209 14.5001 24.7567C14.9336 25.1925 15.5216 25.4374 16.1347 25.4374C16.7478 25.4374 17.3357 25.1925 17.7692 24.7567L20.7391 21.748V34.6856C20.7391 35.2994 20.9816 35.8881 21.4133 36.3221C21.8451 36.7562 22.4307 37 23.0412 37C23.6518 37 24.2374 36.7562 24.6691 36.3221C25.1009 35.8881 25.3434 35.2994 25.3434 34.6856V21.748L28.3132 24.7567C28.5272 24.9736 28.7819 25.1458 29.0624 25.2633C29.343 25.3808 29.6439 25.4413 29.9478 25.4413C30.2517 25.4413 30.5526 25.3808 30.8331 25.2633C31.1137 25.1458 31.3683 24.9736 31.5823 24.7567C31.7981 24.5416 31.9694 24.2856 32.0863 24.0035C32.2031 23.7215 32.2633 23.419 32.2633 23.1135C32.2633 22.8079 32.2031 22.5054 32.0863 22.2234C31.9694 21.9414 31.7981 21.6854 31.5823 21.4702L24.6758 14.527Z" fill="white"/>
</svg>
