<svg width="92" height="92" viewBox="0 0 92 92" fill="none" xmlns="http://www.w3.org/2000/svg">
<path d="M58.512 31.234L38.778 51.014L31.188 43.424C30.7756 42.9424 30.2682 42.5514 29.6975 42.2752C29.1268 41.9991 28.5052 41.844 27.8717 41.8195C27.2382 41.795 26.6064 41.9018 26.0161 42.1331C25.4258 42.3643 24.8897 42.7151 24.4414 43.1634C23.9931 43.6117 23.6423 44.1478 23.4111 44.7381C23.1798 45.3284 23.0731 45.9601 23.0975 46.5936C23.122 47.2271 23.2772 47.8488 23.5533 48.4194C23.8294 48.9901 24.2205 49.4976 24.702 49.91L35.512 60.766C35.9418 61.1923 36.4516 61.5296 37.012 61.7585C37.5725 61.9874 38.1726 62.1035 38.778 62.1C39.9848 62.0949 41.1412 61.6158 41.998 60.766L64.998 37.766C65.4292 37.3384 65.7714 36.8296 66.0049 36.269C66.2384 35.7085 66.3587 35.1072 66.3587 34.5C66.3587 33.8927 66.2384 33.2915 66.0049 32.7309C65.7714 32.1704 65.4292 31.6616 64.998 31.234C64.1361 30.3772 62.9703 29.8963 61.755 29.8963C60.5398 29.8963 59.3739 30.3772 58.512 31.234ZM46 0C36.9021 0 28.0084 2.69785 20.4438 7.7524C12.8791 12.8069 6.98319 19.9912 3.50156 28.3966C0.0199311 36.8019 -0.891022 46.051 0.883898 54.9741C2.65882 63.8973 7.03989 72.0937 13.4731 78.5269C19.9063 84.9601 28.1027 89.3412 37.0259 91.1161C45.949 92.891 55.198 91.9801 63.6034 88.4984C72.0088 85.0168 79.1931 79.1209 84.2476 71.5562C89.3021 63.9915 92 55.0979 92 46C92 39.9592 90.8102 33.9775 88.4985 28.3966C86.1867 22.8156 82.7984 17.7446 78.5269 13.4731C74.2554 9.20159 69.1844 5.81326 63.6034 3.50154C58.0225 1.18982 52.0408 0 46 0ZM46 82.8C38.7217 82.8 31.6068 80.6417 25.555 76.5981C19.5033 72.5544 14.7866 66.807 12.0013 60.0827C9.21595 53.3584 8.48719 45.9592 9.90712 38.8207C11.3271 31.6822 14.8319 25.125 19.9785 19.9785C25.1251 14.8319 31.6822 11.327 38.8207 9.9071C45.9592 8.48716 53.3584 9.21593 60.0828 12.0012C66.8071 14.7865 72.5544 19.5033 76.5981 25.555C80.6417 31.6067 82.8 38.7216 82.8 46C82.8 55.7599 78.9229 65.1202 72.0215 72.0215C65.1202 78.9228 55.76 82.8 46 82.8Z" fill="white"/>
</svg>
