<svg width="21" height="20" viewBox="0 0 21 20" fill="none" xmlns="http://www.w3.org/2000/svg">
<path d="M13.2899 15.2899L11.9999 16.5899V10.9999C11.9999 10.7347 11.8945 10.4803 11.707 10.2928C11.5195 10.1053 11.2651 9.9999 10.9999 9.9999C10.7347 9.9999 10.4803 10.1053 10.2928 10.2928C10.1052 10.4803 9.99989 10.7347 9.99989 10.9999V16.5899L8.70989 15.2899C8.61665 15.1967 8.50596 15.1227 8.38414 15.0722C8.26232 15.0218 8.13175 14.9958 7.99989 14.9958C7.86803 14.9958 7.73746 15.0218 7.61564 15.0722C7.49382 15.1227 7.38313 15.1967 7.28989 15.2899C7.19665 15.3831 7.12269 15.4938 7.07223 15.6156C7.02177 15.7375 6.9958 15.868 6.9958 15.9999C6.9958 16.1318 7.02177 16.2623 7.07223 16.3841C7.12269 16.506 7.19665 16.6167 7.28989 16.7099L10.2899 19.7099C10.385 19.8009 10.4971 19.8723 10.6199 19.9199C10.7396 19.9728 10.869 20.0001 10.9999 20.0001C11.1308 20.0001 11.2602 19.9728 11.3799 19.9199C11.5026 19.8723 11.6148 19.8009 11.7099 19.7099L14.7099 16.7099C14.8982 16.5216 15.004 16.2662 15.004 15.9999C15.004 15.7336 14.8982 15.4782 14.7099 15.2899C14.5216 15.1016 14.2662 14.9958 13.9999 14.9958C13.7336 14.9958 13.4782 15.1016 13.2899 15.2899ZM17.4199 4.21989C16.8089 2.8159 15.7544 1.65097 14.418 0.903622C13.0815 0.156272 11.5369 -0.132273 10.0209 0.0822043C8.50477 0.296681 7.10082 1.00235 6.02415 2.09107C4.94747 3.17979 4.25748 4.59151 4.05989 6.10989C3.10648 6.33822 2.27011 6.90873 1.70963 7.71308C1.14914 8.51744 0.903574 9.49962 1.01955 10.4731C1.13553 11.4466 1.60498 12.3436 2.33876 12.9938C3.07253 13.6439 4.01952 14.002 4.99989 13.9999C5.26511 13.9999 5.51946 13.8945 5.707 13.707C5.89453 13.5195 5.99989 13.2651 5.99989 12.9999C5.99989 12.7347 5.89453 12.4803 5.707 12.2928C5.51946 12.1053 5.26511 11.9999 4.99989 11.9999C4.46946 11.9999 3.96075 11.7892 3.58568 11.4141C3.2106 11.039 2.99989 10.5303 2.99989 9.9999C2.99989 9.46946 3.2106 8.96075 3.58568 8.58568C3.96075 8.21061 4.46946 7.99989 4.99989 7.99989C5.26511 7.99989 5.51946 7.89454 5.707 7.707C5.89453 7.51946 5.99989 7.26511 5.99989 6.99989C6.00244 5.81717 6.42418 4.67365 7.19016 3.77248C7.95614 2.87131 9.01678 2.27085 10.1836 2.07777C11.3505 1.88469 12.548 2.1115 13.5635 2.7179C14.5789 3.32431 15.3465 4.27103 15.7299 5.38989C15.7871 5.56173 15.8898 5.71483 16.0272 5.83283C16.1646 5.95083 16.3314 6.02931 16.5099 6.0599C17.176 6.18577 17.7798 6.5335 18.2229 7.04643C18.6661 7.55936 18.9225 8.20725 18.9503 8.88454C18.9781 9.56182 18.7758 10.2286 18.3762 10.7761C17.9766 11.3237 17.4034 11.7198 16.7499 11.8999C16.6225 11.9327 16.5028 11.9903 16.3977 12.0694C16.2926 12.1485 16.2041 12.2475 16.1372 12.3608C16.0704 12.4741 16.0265 12.5994 16.0081 12.7297C15.9896 12.8599 15.9971 12.9925 16.0299 13.1199C16.0627 13.2473 16.1203 13.3669 16.1994 13.4721C16.2785 13.5772 16.3775 13.6657 16.4908 13.7326C16.6041 13.7994 16.7294 13.8433 16.8597 13.8617C16.9899 13.8801 17.1225 13.8727 17.2499 13.8399C18.3023 13.5618 19.2352 12.9479 19.9069 12.0914C20.5786 11.2348 20.9525 10.1825 20.9717 9.09416C20.991 8.00583 20.6545 6.94094 20.0135 6.06121C19.3724 5.18149 18.4618 4.53499 17.4199 4.21989Z" fill="black"/>
</svg>
